Coordinates
version=1
nRows=14
nColumns=36
inDegrees=yes

Units are S.I. units (second, meters, Newtons, ...)
If the header above contains a line with 'inDegrees', this indicates whether rotational values are in degrees (yes) or radians (no).

endheader
time	pelvis_tilt	pelvis_list	pelvis_rotation	pelvis_tx	pelvis_ty	pelvis_tz	hip_flexion_r	hip_adduction_r	hip_rotation_r	knee_angle_r	knee_angle_r_beta	ankle_angle_r	subtalar_angle_r	mtp_angle_r	hip_flexion_l	hip_adduction_l	hip_rotation_l	knee_angle_l	knee_angle_l_beta	ankle_angle_l	subtalar_angle_l	mtp_angle_l	lumbar_extension	lumbar_bending	lumbar_rotation	arm_flex_r	arm_add_r	arm_rot_r	elbow_flex_r	pro_sup_r	arm_flex_l	arm_add_l	arm_rot_l	elbow_flex_l	pro_sup_l
      1.19000000	     -0.11804703	     -0.74970551	      2.25870343	     -0.70267238	      1.49328123	     -0.57440505	      2.80695293	      0.51967115	     -7.82358886	     27.63648931	      0.48234773	     -9.86478679	    -15.13715920	     -5.27180317	      8.85262373	     -3.16597174	     -2.73151110	     33.73923831	      0.58886080	    -16.22403463	     -7.56501570	     -5.27180317	     -2.87653332	      2.70456626	     -7.66674615	    118.82477542	    -35.18306030	     53.14861842	     95.75157321	    103.96281091	    127.37592014	    -67.45726287	     69.51003667	    102.91392771	     82.03775469
      1.20000000	     -0.07457425	     -0.79993132	      2.16888552	     -0.69147001	      1.49552209	     -0.57461130	      3.15934190	      0.47983528	     -8.19454361	     25.90226404	      0.45207979	    -10.93309513	    -13.91426395	     -5.70048167	      8.54326308	     -3.24517820	     -3.51061754	     31.24092400	      0.54525699	    -16.09814585	     -7.09431635	     -5.70048167	     -2.90745677	      2.81135073	     -7.85569838	    121.58401226	    -37.02855547	     56.45100840	     95.71441668	    106.20121998	    134.06754757	    -69.41353545	     77.15792426	    103.10605786	     82.76998765
      1.21000000	     -0.19625799	     -0.89345815	      2.10820392	     -0.68040248	      1.49657274	     -0.57489234	      3.76417628	      0.46920944	     -8.59856189	     24.31356908	      0.42435183	    -11.73401645	    -12.06011855	     -5.75411318	      8.50730767	     -3.36204157	     -4.15241489	     28.85598764	      0.50363199	    -15.84061978	     -5.89206426	     -5.75411318	     -2.69633066	      2.94404054	     -6.96510278	    125.52167543	    -40.03718457	     61.19450953	     96.23813992	    106.49023228	    136.15606842	    -69.82112564	     79.76739484	    102.77198346	     82.68598983
      1.22000000	     -0.43051193	     -0.96135957	      2.11298754	     -0.66944111	      1.49634813	     -0.57480025	      4.50115522	      0.51132866	     -8.80813824	     22.76739864	      0.39736607	    -12.62566722	    -10.26580997	     -6.33558555	      8.64173556	     -3.45080659	     -4.67272745	     26.51806542	      0.46282755	    -15.63277197	     -4.34939780	     -6.33558555	     -2.58806022	      2.95007867	     -8.25851478	    127.51090813	    -40.62270899	     63.45583354	     95.59949873	    104.55736950	    150.92775209	    -72.02697192	     95.52712510	    103.85235812	     80.70236310
      1.23000000	     -0.66266910	     -1.05388399	      2.10739785	     -0.65863280	      1.49498575	     -0.57491980	      5.33240646	      0.55552397	     -8.96187059	     21.39909955	      0.37348474	    -13.52321860	     -8.36808748	     -6.36901896	      8.82625292	     -3.53369569	     -5.18343957	     24.27746152	      0.42372164	    -15.58417711	     -2.69678922	     -6.36901896	     -2.28412952	      2.93722849	     -7.14418278	    131.99360418	    -43.65116580	     68.64479421	     95.76865013	    104.89981474	    152.94685220	    -71.56822649	     98.03654505	    103.10783161	     80.57703326
      1.24000000	     -0.80988576	     -1.14566974	      2.14374728	     -0.64810725	      1.49248241	     -0.57511943	      6.18134025	      0.58655596	     -8.99464062	     20.28662358	      0.35406838	    -14.02454242	     -6.15174990	     -6.41683666	      8.94818030	     -3.57819440	     -5.48424715	     22.06945472	      0.38518465	    -15.52874379	     -1.08915872	     -6.41683666	     -2.22112957	      2.94729341	     -6.34831599	    137.35730004	    -46.07683091	     74.82009456	     95.46278922	    104.90160626	    156.98250885	    -71.16513029	    102.30221904	    102.49390290	     80.39071504
      1.25000000	     -0.93144477	     -1.20060371	      2.10177712	     -0.63748523	      1.48910450	     -0.57501959	      6.92653122	      0.56411816	     -9.34281065	     18.98283970	      0.33131305	    -14.50074217	     -4.05282690	     -6.70545821	      9.02984157	     -3.61229523	     -5.78410257	     19.86526174	      0.34671422	    -15.84084804	      0.59158185	     -6.70545821	     -2.25485855	      2.95314808	     -7.47650589	    139.53779238	    -46.24434252	     77.33558792	     94.00389311	    101.89545419	    172.69409053	    -71.39519095	    118.94533661	    103.22424075	     78.46947616
      1.26000000	     -0.81421792	     -1.30374772	      2.10405015	     -0.62702396	      1.48503467	     -0.57494939	      7.36345121	      0.59685007	     -9.73365425	     17.58361170	      0.30689192	    -14.93842930	     -1.71068067	     -6.73469562	      8.85163947	     -3.74680746	     -6.22833579	     17.63279057	      0.30775025	    -16.20013459	      2.60134212	     -6.73469562	     -2.50062145	      2.90693805	     -6.32123667	    145.59089100	    -48.56248255	     84.16630017	     93.34643477	    102.57747853	    174.99931182	    -70.43371749	    121.65095514	    102.61647825	     78.32950568
      1.27000000	     -0.70179942	     -1.41088250	      2.09693139	     -0.61661008	      1.48005354	     -0.57472953	      7.77113245	      0.67795177	    -10.08278804	     16.08551573	      0.28074521	    -15.66418665	      0.30635923	     -6.76281220	      8.66413856	     -3.87372252	     -6.64901582	     15.38638988	      0.26854316	    -16.80375575	      4.37227984	     -6.76281220	     -2.73250311	      2.81236026	     -5.17699953	    152.04073660	    -50.50215402	     91.50984987	     92.51278272	    103.26720765	    177.18840225	    -69.44282630	    124.31692432	    102.00831205	     78.30043107
      1.28000000	     -0.68646223	     -1.46641679	      2.10796057	     -0.60633731	      1.47397294	     -0.57455637	      8.26364190	      0.72512966	    -10.28630450	     14.56631226	      0.25423011	    -16.45378588	      1.96770415	     -6.82753213	      8.60641697	     -3.91589976	     -6.91925775	     13.22139398	      0.23075686	    -17.32774460	      5.62782870	     -6.82753213	     -2.97214684	      2.72888861	     -3.52831369	    160.80513068	    -52.05306191	    101.25897674	     91.99527744	    103.93268922	    177.28871284	    -68.70866741	    124.47625585	    101.21973434	     78.15678185
      1.29000000	     -0.47644794	     -1.47909127	      2.15504157	     -0.59601479	      1.46711500	     -0.57437180	      8.52975198	      0.70662863	    -10.71775676	     13.10908281	      0.22879666	    -17.00019496	      3.62757668	     -6.86680987	      8.38162792	     -3.94386719	     -7.33048097	     11.20350995	      0.19553814	    -17.67363524	      6.96366266	     -6.86680987	     -3.38153453	      2.60807096	     -2.17087360	    168.82470482	    -52.69106669	    110.06008660	     91.04012508	    104.19039410	    178.05942568	    -67.96467351	    125.29576958	    100.35296047	     78.02187617
      1.30000000	     -0.22554352	     -1.50482535	      2.25244142	     -0.58576430	      1.45931262	     -0.57425225	      8.75697164	      0.70625542	    -11.05598842	     11.73318335	      0.20478268	    -17.55271213	      4.42325991	     -6.90320215	      8.21412665	     -3.98068483	     -7.80278650	      9.39791245	      0.16402452	    -18.05475750	      7.89492417	     -6.90320215	     -3.73207729	      2.56842445	     -1.00126628	    175.86062951	    -52.61482934	    117.89680343	     89.72984062	    104.01562129	    178.41969805	    -67.53320628	    125.43991426	     99.39597163	     77.96046655
      1.31000000	      0.02898682	     -1.53889582	      2.35018127	     -0.57546342	      1.45046783	     -0.57417002	      9.00803107	      0.70798787	    -11.35971481	     10.51398005	      0.18350357	    -17.81243991	      4.83166983	     -6.91966278	      8.11971372	     -4.00992948	     -8.20066539	      7.81584268	      0.13641219	    -18.21603930	      8.26944631	     -6.91966278	     -3.66268336	      2.54118206	     -0.63341701	    178.56050818	    -52.36010285	    121.42888688	     87.41081295	    103.82218912	    178.88844338	    -67.43503010	    125.73095704	     98.30800025	     77.99128986
      1.32000000	      0.26294654	     -1.57008088	      2.42285639	     -0.56517987	      1.44060456	     -0.57402316	      9.31758174	      0.72636365	    -11.47280484	      9.44118945	      0.16477984	    -17.98854926	      4.90786621	     -6.94236157	      8.10369755	     -4.03554538	     -8.49152123	      6.41080561	      0.11188967	    -18.18775485	      8.19082474	     -6.94236157	     -3.36017132	      2.44806772	     -0.59436542	    179.26965048	    -52.35273648	    123.02270286	     84.74082031	    103.13970095	    179.17499502	    -67.45913399	    125.76343147	     97.25535768	     77.95363907
